<?xml version="1.0" encoding="UTF-8" standalone="no"?><!DOCTYPE svg PUBLIC "-//W3C//DTD SVG 1.1//EN" "http://www.w3.org/Graphics/SVG/1.1/DTD/svg11.dtd"><svg width="100%" height="100%" viewBox="0 0 18 16" version="1.1" xmlns="http://www.w3.org/2000/svg" xmlns:xlink="http://www.w3.org/1999/xlink" xml:space="preserve" style="fill-rule:evenodd;clip-rule:evenodd;stroke-linejoin:round;stroke-miterlimit:1.41421;"><path d="M7.802,2.095l-0.53,0c-1.713,0 -3.16,1.417 -3.16,3.095l0,1.455c0,0.763 0.337,1.623 0.904,2.34c-0.011,0.119 -0.028,0.237 -0.051,0.354l-0.339,0.15c-0.519,0.23 -1.054,0.468 -1.713,0.656l-0.136,0.039l-0.124,0.07c-0.25,0.144 -1.585,1.026 -1.585,3.603l0,1.177l12.938,0l0,-1.177c0,-2.676 -1.382,-3.503 -1.642,-3.632l-0.098,-0.049l-0.105,-0.031c-0.661,-0.188 -1.199,-0.428 -1.719,-0.659l-0.3,-0.133c-0.026,-0.131 -0.047,-0.264 -0.062,-0.397c0.553,-0.713 0.883,-1.561 0.883,-2.313l0,-1.453c-0.001,-1.735 -1.389,-3.095 -3.161,-3.095Z" style="fill:#666;fill-rule:nonzero;"/><path d="M11.837,11.277c-1.116,-0.319 -1.896,-0.755 -2.672,-1.054c-0.074,-0.244 -0.252,-0.675 -0.294,-1.668c0.534,-0.538 0.916,-1.298 0.916,-1.909l0,-1.456c0,-1.059 -0.86,-1.919 -1.985,-1.919l-0.53,0c-1.058,0 -1.985,0.86 -1.985,1.919l0,1.455c0,0.617 0.387,1.384 0.928,1.923c-0.018,0.975 -0.201,1.404 -0.288,1.648c-0.784,0.298 -1.566,0.74 -2.69,1.061c0,0 -0.926,0.529 -0.993,2.58l10.586,0c-0.066,-2.117 -0.993,-2.58 -0.993,-2.58l0,0Z" style="fill:#ffc857;fill-rule:nonzero;"/><path d="M11.837,11.277c-1.117,-0.319 -1.896,-0.755 -2.673,-1.055c0.047,0.154 0.055,0.231 -0.04,0.327c-0.794,0.859 -2.448,0.794 -3.176,0c-0.096,-0.097 -0.078,-0.176 -0.02,-0.334c-0.783,0.298 -1.567,0.739 -2.692,1.062c0,0 -0.926,0.529 -0.993,2.58l10.587,0c-0.066,-2.117 -0.993,-2.58 -0.993,-2.58l0,0Z" style="fill:#79a548;fill-rule:nonzero;"/><path d="M15.577,5.538l-1.87,0l0,-0.419c0,-0.352 0.085,-0.643 0.255,-0.872c0.17,-0.23 0.411,-0.447 0.722,-0.653l0.241,-0.18c0.132,-0.1 0.248,-0.204 0.347,-0.314c0.099,-0.11 0.149,-0.234 0.149,-0.374c0,-0.212 -0.062,-0.38 -0.184,-0.503c-0.123,-0.123 -0.321,-0.185 -0.595,-0.185c-0.161,0 -0.298,0.027 -0.411,0.08c-0.113,0.053 -0.205,0.12 -0.276,0.2c-0.071,0.079 -0.128,0.166 -0.17,0.259c-0.043,0.093 -0.069,0.179 -0.078,0.259l-1.855,-0.229c0.047,-0.26 0.139,-0.505 0.276,-0.738c0.137,-0.233 0.326,-0.439 0.566,-0.618c0.241,-0.18 0.531,-0.323 0.871,-0.429c0.34,-0.106 0.742,-0.159 1.204,-0.159c0.831,0 1.495,0.169 1.99,0.508c0.496,0.339 0.744,0.821 0.744,1.446c0,0.212 -0.033,0.402 -0.099,0.568c-0.066,0.166 -0.156,0.319 -0.269,0.458c-0.114,0.14 -0.251,0.271 -0.411,0.394c-0.161,0.123 -0.34,0.244 -0.538,0.364c-0.246,0.153 -0.409,0.294 -0.489,0.424c-0.08,0.129 -0.12,0.274 -0.12,0.433l0,0.28Zm0.368,1.565c0,0.252 -0.111,0.465 -0.333,0.638c-0.222,0.173 -0.512,0.259 -0.871,0.259c-0.359,0 -0.649,-0.086 -0.871,-0.259c-0.222,-0.173 -0.333,-0.386 -0.333,-0.638c0,-0.246 0.111,-0.459 0.333,-0.638c0.222,-0.18 0.512,-0.269 0.871,-0.269c0.359,0 0.649,0.089 0.871,0.269c0.222,0.179 0.333,0.392 0.333,0.638Z" style="fill:#79a548;fill-rule:nonzero;"/></svg>