<?xml version="1.0" encoding="UTF-8" standalone="no"?><!DOCTYPE svg PUBLIC "-//W3C//DTD SVG 1.1//EN" "http://www.w3.org/Graphics/SVG/1.1/DTD/svg11.dtd"><svg width="100%" height="100%" viewBox="0 0 64 64" version="1.1" xmlns="http://www.w3.org/2000/svg" xmlns:xlink="http://www.w3.org/1999/xlink" xml:space="preserve" style="fill-rule:evenodd;clip-rule:evenodd;stroke-linejoin:round;stroke-miterlimit:1.41421;"><rect x="0" y="0" width="64" height="64" style="fill:#999;"/><rect x="4" y="4" width="56" height="56" style="fill:#fff;"/><path d="M28.128,16.05l-1.529,0c-4.952,0 -9.133,4.096 -9.133,8.943l0,4.204c0,2.206 0.975,4.691 2.614,6.764c-0.033,0.343 -0.083,0.685 -0.15,1.023l-0.979,0.432c-1.499,0.666 -3.045,1.352 -4.949,1.896l-0.394,0.112l-0.357,0.204c-0.724,0.415 -4.581,2.964 -4.581,10.411l0,3.399l37.387,0l0,-3.399c0,-7.732 -3.993,-10.122 -4.745,-10.496l-0.285,-0.142l-0.303,-0.089c-1.91,-0.544 -3.463,-1.237 -4.965,-1.903l-0.867,-0.384c-0.077,-0.38 -0.137,-0.764 -0.18,-1.149c1.597,-2.06 2.552,-4.51 2.552,-6.682l0,-4.201c-0.003,-5.014 -4.014,-8.943 -9.136,-8.943Z" style="fill:#666;fill-rule:nonzero;"/><path d="M39.79,42.582c-3.226,-0.921 -5.479,-2.182 -7.723,-3.046c-0.214,-0.703 -0.727,-1.95 -0.849,-4.819c1.543,-1.553 2.647,-3.749 2.647,-5.517l0,-4.207c0,-3.059 -2.484,-5.544 -5.737,-5.544l-1.529,0c-3.059,0 -5.738,2.485 -5.738,5.544l0,4.204c0,1.785 1.119,4.001 2.682,5.557c-0.051,2.818 -0.581,4.059 -0.833,4.762c-2.263,0.863 -4.524,2.138 -7.773,3.066c0,0 -2.675,1.529 -2.869,7.457l30.59,0c-0.19,-6.118 -2.868,-7.457 -2.868,-7.457l0,0Z" style="fill:#ffc857;fill-rule:nonzero;"/><path d="M39.79,42.582c-3.229,-0.921 -5.479,-2.182 -7.726,-3.049c0.136,0.445 0.16,0.67 -0.115,0.945c-2.295,2.485 -7.074,2.294 -9.177,0c-0.279,-0.279 -0.225,-0.506 -0.058,-0.965c-2.264,0.863 -4.528,2.138 -7.78,3.069c0,0 -2.675,1.529 -2.869,7.457l30.593,0c-0.19,-6.118 -2.868,-7.457 -2.868,-7.457l0,0Z" style="fill:#79a548;fill-rule:nonzero;"/><path d="M49.67,21.757l-5.402,0l0,-1.21c0,-1.018 0.245,-1.858 0.736,-2.521c0.492,-0.663 1.187,-1.291 2.088,-1.887l0.696,-0.518c0.382,-0.288 0.716,-0.591 1.002,-0.908c0.287,-0.317 0.43,-0.677 0.43,-1.08c0,-0.615 -0.177,-1.1 -0.532,-1.455c-0.355,-0.355 -0.928,-0.533 -1.719,-0.533c-0.464,0 -0.859,0.077 -1.187,0.231c-0.327,0.153 -0.593,0.345 -0.798,0.576c-0.205,0.23 -0.368,0.48 -0.491,0.749c-0.123,0.269 -0.198,0.518 -0.225,0.749l-5.362,-0.663c0.137,-0.749 0.403,-1.459 0.798,-2.131c0.396,-0.673 0.942,-1.268 1.637,-1.787c0.696,-0.518 1.535,-0.931 2.517,-1.238c0.983,-0.307 2.142,-0.461 3.479,-0.461c2.401,0 4.318,0.49 5.751,1.469c1.432,0.979 2.148,2.372 2.148,4.177c0,0.615 -0.095,1.162 -0.286,1.642c-0.191,0.48 -0.45,0.922 -0.778,1.325c-0.327,0.404 -0.723,0.783 -1.187,1.138c-0.463,0.355 -0.982,0.706 -1.555,1.052c-0.709,0.441 -1.18,0.849 -1.412,1.224c-0.232,0.374 -0.348,0.792 -0.348,1.253l0,0.807Zm1.064,4.522c0,0.73 -0.32,1.345 -0.961,1.844c-0.642,0.499 -1.481,0.749 -2.518,0.749c-1.036,0 -1.875,-0.25 -2.517,-0.749c-0.641,-0.499 -0.961,-1.114 -0.961,-1.844c0,-0.71 0.32,-1.325 0.961,-1.843c0.642,-0.519 1.481,-0.778 2.517,-0.778c1.037,0 1.876,0.259 2.518,0.778c0.641,0.518 0.961,1.133 0.961,1.843Z" style="fill:#79a548;fill-rule:nonzero;"/></svg>