<?xml version="1.0" encoding="UTF-8" standalone="no"?><!DOCTYPE svg PUBLIC "-//W3C//DTD SVG 1.1//EN" "http://www.w3.org/Graphics/SVG/1.1/DTD/svg11.dtd"><svg width="100%" height="100%" viewBox="0 0 19 17" version="1.1" xmlns="http://www.w3.org/2000/svg" xmlns:xlink="http://www.w3.org/1999/xlink" xml:space="preserve" xmlns:serif="http://www.serif.com/" style="fill-rule:evenodd;clip-rule:evenodd;stroke-linejoin:round;stroke-miterlimit:1.41421;"><path id="comment-o" d="M9.374,1.339c-4.352,0 -8.035,2.448 -8.035,5.357c0,1.559 1.046,3.045 2.856,4.071l0.91,0.523l-0.282,1.004c-0.199,0.743 -0.461,1.319 -0.733,1.8c1.057,-0.439 2.02,-1.036 2.878,-1.789l0.45,-0.398l0.596,0.063c0.45,0.052 0.91,0.084 1.36,0.084c4.353,0 8.036,-2.449 8.036,-5.358c0,-2.909 -3.683,-5.357 -8.036,-5.357l0,0Zm9.375,5.357c0,3.704 -4.196,6.697 -9.375,6.697c-0.513,0 -1.025,-0.032 -1.517,-0.084c-1.371,1.214 -3.003,2.072 -4.813,2.532c-0.376,0.105 -0.785,0.178 -1.192,0.23l-0.053,0c-0.209,0 -0.397,-0.167 -0.45,-0.397l0,-0.011c-0.052,-0.262 0.126,-0.419 0.283,-0.607c0.659,-0.742 1.412,-1.371 1.904,-3.118c-2.155,-1.224 -3.536,-3.117 -3.536,-5.242c0,-3.703 4.196,-6.696 9.375,-6.696c5.179,0 9.375,2.993 9.375,6.696l-0.001,0Z" style="fill:#333;fill-rule:nonzero;"/><g id="Layer1"><path d="M11.111,7.334l2.181,0.659c-0.147,0.612 -0.378,1.123 -0.693,1.533c-0.314,0.41 -0.705,0.719 -1.172,0.928c-0.467,0.209 -1.061,0.313 -1.783,0.313c-0.875,0 -1.59,-0.127 -2.145,-0.382c-0.555,-0.254 -1.034,-0.702 -1.436,-1.343c-0.403,-0.64 -0.605,-1.461 -0.605,-2.461c0,-1.333 0.355,-2.357 1.063,-3.073c0.709,-0.716 1.711,-1.074 3.008,-1.074c1.014,0 1.812,0.205 2.392,0.615c0.581,0.41 1.012,1.04 1.294,1.89l-2.198,0.489c-0.076,-0.245 -0.157,-0.425 -0.241,-0.538c-0.139,-0.191 -0.31,-0.337 -0.511,-0.44c-0.202,-0.102 -0.427,-0.154 -0.676,-0.154c-0.564,0 -0.996,0.227 -1.296,0.681c-0.227,0.337 -0.341,0.867 -0.341,1.588c0,0.894 0.136,1.506 0.407,1.837c0.271,0.332 0.652,0.498 1.142,0.498c0.476,0 0.836,-0.134 1.08,-0.401c0.243,-0.268 0.42,-0.656 0.53,-1.165Z" style="fill:#99f;fill-rule:nonzero;"/></g></svg>