<?xml version="1.0" encoding="UTF-8" standalone="no"?><!DOCTYPE svg PUBLIC "-//W3C//DTD SVG 1.1//EN" "http://www.w3.org/Graphics/SVG/1.1/DTD/svg11.dtd"><svg width="100%" height="100%" viewBox="0 0 19 17" version="1.1" xmlns="http://www.w3.org/2000/svg" xmlns:xlink="http://www.w3.org/1999/xlink" xml:space="preserve" xmlns:serif="http://www.serif.com/" style="fill-rule:evenodd;clip-rule:evenodd;stroke-linejoin:round;stroke-miterlimit:1.41421;"><path id="comment-o" d="M9.374,1.339c-4.352,0 -8.035,2.448 -8.035,5.357c0,1.559 1.046,3.045 2.856,4.071l0.91,0.523l-0.282,1.004c-0.199,0.743 -0.461,1.319 -0.733,1.8c1.057,-0.439 2.02,-1.036 2.878,-1.789l0.45,-0.398l0.596,0.063c0.45,0.052 0.91,0.084 1.36,0.084c4.353,0 8.036,-2.449 8.036,-5.358c0,-2.909 -3.683,-5.357 -8.036,-5.357l0,0Zm9.375,5.357c0,3.704 -4.196,6.697 -9.375,6.697c-0.513,0 -1.025,-0.032 -1.517,-0.084c-1.371,1.214 -3.003,2.072 -4.813,2.532c-0.376,0.105 -0.785,0.178 -1.192,0.23l-0.053,0c-0.209,0 -0.397,-0.167 -0.45,-0.397l0,-0.011c-0.052,-0.262 0.126,-0.419 0.283,-0.607c0.659,-0.742 1.412,-1.371 1.904,-3.118c-2.155,-1.224 -3.536,-3.117 -3.536,-5.242c0,-3.703 4.196,-6.696 9.375,-6.696c5.179,0 9.375,2.993 9.375,6.696l-0.001,0Z" style="fill:#333;fill-rule:nonzero;"/><g id="Layer1"><path d="M12.305,8.99c0.291,0.202 0.48,0.328 0.569,0.38c0.133,0.075 0.313,0.162 0.538,0.261l-0.646,1.302c-0.324,-0.157 -0.646,-0.344 -0.963,-0.561c-0.318,-0.217 -0.54,-0.38 -0.667,-0.49c-0.513,0.223 -1.155,0.334 -1.928,0.334c-1.141,0 -2.042,-0.298 -2.702,-0.892c-0.779,-0.704 -1.168,-1.694 -1.168,-2.969c0,-1.237 0.34,-2.198 1.022,-2.884c0.682,-0.685 1.635,-1.028 2.859,-1.028c1.247,0 2.21,0.335 2.889,1.005c0.678,0.67 1.017,1.629 1.017,2.876c0,1.111 -0.273,2 -0.82,2.666Zm-1.779,-1.189c0.185,-0.332 0.277,-0.827 0.277,-1.487c0,-0.759 -0.141,-1.3 -0.423,-1.625c-0.282,-0.325 -0.671,-0.487 -1.166,-0.487c-0.462,0 -0.836,0.166 -1.123,0.497c-0.287,0.332 -0.431,0.849 -0.431,1.554c0,0.82 0.14,1.396 0.42,1.727c0.281,0.332 0.665,0.498 1.154,0.498c0.157,0 0.306,-0.016 0.446,-0.046c-0.195,-0.188 -0.502,-0.366 -0.923,-0.534l0.364,-0.835c0.205,0.037 0.365,0.083 0.48,0.138c0.114,0.055 0.337,0.198 0.669,0.431c0.078,0.054 0.164,0.111 0.256,0.169Z" style="fill:#99f;fill-rule:nonzero;"/></g></svg>